%TF.GenerationSoftware,KiCad,Pcbnew,8.0.2*%
%TF.CreationDate,2024-05-07T14:35:48-05:00*%
%TF.ProjectId,CERBERUS 2100 Blinky,43455242-4552-4555-9320-323130302042,rev?*%
%TF.SameCoordinates,Original*%
%TF.FileFunction,Copper,L1,Top*%
%TF.FilePolarity,Positive*%
%FSLAX46Y46*%
G04 Gerber Fmt 4.6, Leading zero omitted, Abs format (unit mm)*
G04 Created by KiCad (PCBNEW 8.0.2) date 2024-05-07 14:35:48*
%MOMM*%
%LPD*%
G01*
G04 APERTURE LIST*
G04 Aperture macros list*
%AMRoundRect*
0 Rectangle with rounded corners*
0 $1 Rounding radius*
0 $2 $3 $4 $5 $6 $7 $8 $9 X,Y pos of 4 corners*
0 Add a 4 corners polygon primitive as box body*
4,1,4,$2,$3,$4,$5,$6,$7,$8,$9,$2,$3,0*
0 Add four circle primitives for the rounded corners*
1,1,$1+$1,$2,$3*
1,1,$1+$1,$4,$5*
1,1,$1+$1,$6,$7*
1,1,$1+$1,$8,$9*
0 Add four rect primitives between the rounded corners*
20,1,$1+$1,$2,$3,$4,$5,0*
20,1,$1+$1,$4,$5,$6,$7,0*
20,1,$1+$1,$6,$7,$8,$9,0*
20,1,$1+$1,$8,$9,$2,$3,0*%
G04 Aperture macros list end*
%TA.AperFunction,SMDPad,CuDef*%
%ADD10RoundRect,0.250001X0.462499X0.624999X-0.462499X0.624999X-0.462499X-0.624999X0.462499X-0.624999X0*%
%TD*%
%TA.AperFunction,ComponentPad*%
%ADD11R,1.700000X1.700000*%
%TD*%
%TA.AperFunction,ComponentPad*%
%ADD12O,1.700000X1.700000*%
%TD*%
%TA.AperFunction,SMDPad,CuDef*%
%ADD13RoundRect,0.250000X-0.350000X-0.450000X0.350000X-0.450000X0.350000X0.450000X-0.350000X0.450000X0*%
%TD*%
%TA.AperFunction,SMDPad,CuDef*%
%ADD14R,3.450000X1.850000*%
%TD*%
%TA.AperFunction,SMDPad,CuDef*%
%ADD15RoundRect,0.150000X-0.837500X-0.150000X0.837500X-0.150000X0.837500X0.150000X-0.837500X0.150000X0*%
%TD*%
%TA.AperFunction,SMDPad,CuDef*%
%ADD16RoundRect,0.250000X0.337500X0.475000X-0.337500X0.475000X-0.337500X-0.475000X0.337500X-0.475000X0*%
%TD*%
%TA.AperFunction,SMDPad,CuDef*%
%ADD17R,1.850000X3.450000*%
%TD*%
%TA.AperFunction,SMDPad,CuDef*%
%ADD18RoundRect,0.150000X-0.875000X-0.150000X0.875000X-0.150000X0.875000X0.150000X-0.875000X0.150000X0*%
%TD*%
%TA.AperFunction,ViaPad*%
%ADD19C,0.800000*%
%TD*%
%TA.AperFunction,Conductor*%
%ADD20C,0.609600*%
%TD*%
%TA.AperFunction,Conductor*%
%ADD21C,0.250000*%
%TD*%
G04 APERTURE END LIST*
D10*
%TO.P,D8,1,K*%
%TO.N,GND*%
X119129200Y-96477400D03*
%TO.P,D8,2,A*%
%TO.N,Net-(D8-A)*%
X116154200Y-96477400D03*
%TD*%
%TO.P,D3,1,K*%
%TO.N,GND*%
X119129200Y-76327000D03*
%TO.P,D3,2,A*%
%TO.N,Net-(D3-A)*%
X116154200Y-76327000D03*
%TD*%
D11*
%TO.P,J1,1,Pin_1*%
%TO.N,/XCLK*%
X84861400Y-62052200D03*
D12*
%TO.P,J1,2,Pin_2*%
%TO.N,GND*%
X82321400Y-62052200D03*
%TO.P,J1,3,Pin_3*%
%TO.N,+5V*%
X84861400Y-64592200D03*
%TO.P,J1,4,Pin_4*%
%TO.N,/XE*%
X82321400Y-64592200D03*
%TO.P,J1,5,Pin_5*%
%TO.N,/XBUSREQ*%
X84861400Y-67132200D03*
%TO.P,J1,6,Pin_6*%
%TO.N,/XSLC*%
X82321400Y-67132200D03*
%TO.P,J1,7,Pin_7*%
%TO.N,/XBUSACK*%
X84861400Y-69672200D03*
%TO.P,J1,8,Pin_8*%
%TO.N,/XIRQ*%
X82321400Y-69672200D03*
%TO.P,J1,9,Pin_9*%
%TO.N,/XRD*%
X84861400Y-72212200D03*
%TO.P,J1,10,Pin_10*%
%TO.N,/XWR*%
X82321400Y-72212200D03*
%TO.P,J1,11,Pin_11*%
%TO.N,/XA0*%
X84861400Y-74752200D03*
%TO.P,J1,12,Pin_12*%
%TO.N,/XA1*%
X82321400Y-74752200D03*
%TO.P,J1,13,Pin_13*%
%TO.N,/XA2*%
X84861400Y-77292200D03*
%TO.P,J1,14,Pin_14*%
%TO.N,/XA3*%
X82321400Y-77292200D03*
%TO.P,J1,15,Pin_15*%
%TO.N,/XA4*%
X84861400Y-79832200D03*
%TO.P,J1,16,Pin_16*%
%TO.N,/XA5*%
X82321400Y-79832200D03*
%TO.P,J1,17,Pin_17*%
%TO.N,/XA6*%
X84861400Y-82372200D03*
%TO.P,J1,18,Pin_18*%
%TO.N,/XA7*%
X82321400Y-82372200D03*
%TO.P,J1,19,Pin_19*%
%TO.N,/XA8*%
X84861400Y-84912200D03*
%TO.P,J1,20,Pin_20*%
%TO.N,/XA9*%
X82321400Y-84912200D03*
%TO.P,J1,21,Pin_21*%
%TO.N,/XA10*%
X84861400Y-87452200D03*
%TO.P,J1,22,Pin_22*%
%TO.N,/XA11*%
X82321400Y-87452200D03*
%TO.P,J1,23,Pin_23*%
%TO.N,/XA12*%
X84861400Y-89992200D03*
%TO.P,J1,24,Pin_24*%
%TO.N,/XA13*%
X82321400Y-89992200D03*
%TO.P,J1,25,Pin_25*%
%TO.N,/XA14*%
X84861400Y-92532200D03*
%TO.P,J1,26,Pin_26*%
%TO.N,/XA15*%
X82321400Y-92532200D03*
%TO.P,J1,27,Pin_27*%
%TO.N,/XD0*%
X84861400Y-95072200D03*
%TO.P,J1,28,Pin_28*%
%TO.N,/XD1*%
X82321400Y-95072200D03*
%TO.P,J1,29,Pin_29*%
%TO.N,/XD2*%
X84861400Y-97612200D03*
%TO.P,J1,30,Pin_30*%
%TO.N,/XD3*%
X82321400Y-97612200D03*
%TO.P,J1,31,Pin_31*%
%TO.N,/XD4*%
X84861400Y-100152200D03*
%TO.P,J1,32,Pin_32*%
%TO.N,/XD5*%
X82321400Y-100152200D03*
%TO.P,J1,33,Pin_33*%
%TO.N,/XD6*%
X84861400Y-102692200D03*
%TO.P,J1,34,Pin_34*%
%TO.N,/XD7*%
X82321400Y-102692200D03*
%TO.P,J1,35,Pin_35*%
%TO.N,+5V*%
X84861400Y-105232200D03*
%TO.P,J1,36,Pin_36*%
%TO.N,GND*%
X82321400Y-105232200D03*
%TO.P,J1,37,Pin_37*%
%TO.N,+5V*%
X84861400Y-107772200D03*
%TO.P,J1,38,Pin_38*%
%TO.N,GND*%
X82321400Y-107772200D03*
%TO.P,J1,39,Pin_39*%
%TO.N,/XIN*%
X84861400Y-110312200D03*
%TO.P,J1,40,Pin_40*%
%TO.N,GND*%
X82321400Y-110312200D03*
%TD*%
D10*
%TO.P,D9,1,K*%
%TO.N,GND*%
X119129200Y-99867400D03*
%TO.P,D9,2,A*%
%TO.N,Net-(D9-A)*%
X116154200Y-99867400D03*
%TD*%
D13*
%TO.P,R8,1*%
%TO.N,/Q6*%
X110388400Y-96524266D03*
%TO.P,R8,2*%
%TO.N,Net-(D8-A)*%
X112388400Y-96524266D03*
%TD*%
D10*
%TO.P,D7,1,K*%
%TO.N,GND*%
X119129200Y-93087400D03*
%TO.P,D7,2,A*%
%TO.N,Net-(D7-A)*%
X116154200Y-93087400D03*
%TD*%
D14*
%TO.P,TP3,1,1*%
%TO.N,/LE*%
X101092000Y-106680000D03*
%TD*%
D10*
%TO.P,D6,1,K*%
%TO.N,GND*%
X119162100Y-89838000D03*
%TO.P,D6,2,A*%
%TO.N,Net-(D6-A)*%
X116187100Y-89838000D03*
%TD*%
D15*
%TO.P,U1,1,OE*%
%TO.N,GND*%
X98137500Y-79121000D03*
%TO.P,U1,2,D0*%
%TO.N,/XD0*%
X98137500Y-80391000D03*
%TO.P,U1,3,D1*%
%TO.N,/XD1*%
X98137500Y-81661000D03*
%TO.P,U1,4,D2*%
%TO.N,/XD2*%
X98137500Y-82931000D03*
%TO.P,U1,5,D3*%
%TO.N,/XD3*%
X98137500Y-84201000D03*
%TO.P,U1,6,D4*%
%TO.N,/XD4*%
X98137500Y-85471000D03*
%TO.P,U1,7,D5*%
%TO.N,/XD5*%
X98137500Y-86741000D03*
%TO.P,U1,8,D6*%
%TO.N,/XD6*%
X98137500Y-88011000D03*
%TO.P,U1,9,D7*%
%TO.N,/XD7*%
X98137500Y-89281000D03*
%TO.P,U1,10,GND*%
%TO.N,GND*%
X98137500Y-90551000D03*
%TO.P,U1,11,Load*%
%TO.N,/LE*%
X105062500Y-90551000D03*
%TO.P,U1,12,Q7*%
%TO.N,/Q7*%
X105062500Y-89281000D03*
%TO.P,U1,13,Q6*%
%TO.N,/Q6*%
X105062500Y-88011000D03*
%TO.P,U1,14,Q5*%
%TO.N,/Q5*%
X105062500Y-86741000D03*
%TO.P,U1,15,Q4*%
%TO.N,/Q4*%
X105062500Y-85471000D03*
%TO.P,U1,16,Q3*%
%TO.N,/Q3*%
X105062500Y-84201000D03*
%TO.P,U1,17,Q2*%
%TO.N,/Q2*%
X105062500Y-82931000D03*
%TO.P,U1,18,Q1*%
%TO.N,/Q1*%
X105062500Y-81661000D03*
%TO.P,U1,19,Q0*%
%TO.N,/Q0*%
X105062500Y-80391000D03*
%TO.P,U1,20,VCC*%
%TO.N,+5V*%
X105062500Y-79121000D03*
%TD*%
D16*
%TO.P,C1,1*%
%TO.N,+5V*%
X103653500Y-76200000D03*
%TO.P,C1,2*%
%TO.N,GND*%
X101578500Y-76200000D03*
%TD*%
D13*
%TO.P,R2,1*%
%TO.N,/Q0*%
X110388400Y-72937000D03*
%TO.P,R2,2*%
%TO.N,Net-(D2-A)*%
X112388400Y-72937000D03*
%TD*%
D17*
%TO.P,TP1,1,1*%
%TO.N,GND*%
X98425000Y-75565000D03*
%TD*%
D13*
%TO.P,R1,1*%
%TO.N,+5V*%
X97171000Y-61595000D03*
%TO.P,R1,2*%
%TO.N,Net-(D1-A)*%
X99171000Y-61595000D03*
%TD*%
%TO.P,R9,1*%
%TO.N,/Q7*%
X110388400Y-99867400D03*
%TO.P,R9,2*%
%TO.N,Net-(D9-A)*%
X112388400Y-99867400D03*
%TD*%
%TO.P,R5,1*%
%TO.N,/Q3*%
X110388400Y-83107000D03*
%TO.P,R5,2*%
%TO.N,Net-(D5-A)*%
X112388400Y-83107000D03*
%TD*%
D17*
%TO.P,TP2,1,1*%
%TO.N,/XSLC*%
X98298000Y-102616000D03*
%TD*%
D10*
%TO.P,D2,1,K*%
%TO.N,GND*%
X119129200Y-72937000D03*
%TO.P,D2,2,A*%
%TO.N,Net-(D2-A)*%
X116154200Y-72937000D03*
%TD*%
%TO.P,D5,1,K*%
%TO.N,GND*%
X119129200Y-83107000D03*
%TO.P,D5,2,A*%
%TO.N,Net-(D5-A)*%
X116154200Y-83107000D03*
%TD*%
%TO.P,D4,1,K*%
%TO.N,GND*%
X119129200Y-79717000D03*
%TO.P,D4,2,A*%
%TO.N,Net-(D4-A)*%
X116154200Y-79717000D03*
%TD*%
D13*
%TO.P,R7,1*%
%TO.N,/Q5*%
X110388400Y-93181133D03*
%TO.P,R7,2*%
%TO.N,Net-(D7-A)*%
X112388400Y-93181133D03*
%TD*%
%TO.P,R6,1*%
%TO.N,/Q4*%
X110388400Y-89838000D03*
%TO.P,R6,2*%
%TO.N,Net-(D6-A)*%
X112388400Y-89838000D03*
%TD*%
D11*
%TO.P,J2,1,Pin_1*%
%TO.N,/XSLC*%
X98526600Y-95656400D03*
D12*
%TO.P,J2,2,Pin_2*%
%TO.N,/LE*%
X101066600Y-95656400D03*
%TO.P,J2,3,Pin_3*%
%TO.N,/XCLK*%
X103606600Y-95656400D03*
%TD*%
D10*
%TO.P,D1,1,K*%
%TO.N,GND*%
X104611500Y-61595000D03*
%TO.P,D1,2,A*%
%TO.N,Net-(D1-A)*%
X101636500Y-61595000D03*
%TD*%
D17*
%TO.P,TP4,1,1*%
%TO.N,/XCLK*%
X103632000Y-102616000D03*
%TD*%
D18*
%TO.P,U2,1,OE*%
%TO.N,GND*%
X96950000Y-79121000D03*
%TO.P,U2,2,D0*%
%TO.N,/XD0*%
X96950000Y-80391000D03*
%TO.P,U2,3,D1*%
%TO.N,/XD1*%
X96950000Y-81661000D03*
%TO.P,U2,4,D2*%
%TO.N,/XD2*%
X96950000Y-82931000D03*
%TO.P,U2,5,D3*%
%TO.N,/XD3*%
X96950000Y-84201000D03*
%TO.P,U2,6,D4*%
%TO.N,/XD4*%
X96950000Y-85471000D03*
%TO.P,U2,7,D5*%
%TO.N,/XD5*%
X96950000Y-86741000D03*
%TO.P,U2,8,D6*%
%TO.N,/XD6*%
X96950000Y-88011000D03*
%TO.P,U2,9,D7*%
%TO.N,/XD7*%
X96950000Y-89281000D03*
%TO.P,U2,10,GND*%
%TO.N,GND*%
X96950000Y-90551000D03*
%TO.P,U2,11,Load*%
%TO.N,/LE*%
X106250000Y-90551000D03*
%TO.P,U2,12,Q7*%
%TO.N,/Q7*%
X106250000Y-89281000D03*
%TO.P,U2,13,Q6*%
%TO.N,/Q6*%
X106250000Y-88011000D03*
%TO.P,U2,14,Q5*%
%TO.N,/Q5*%
X106250000Y-86741000D03*
%TO.P,U2,15,Q4*%
%TO.N,/Q4*%
X106250000Y-85471000D03*
%TO.P,U2,16,Q3*%
%TO.N,/Q3*%
X106250000Y-84201000D03*
%TO.P,U2,17,Q2*%
%TO.N,/Q2*%
X106250000Y-82931000D03*
%TO.P,U2,18,Q1*%
%TO.N,/Q1*%
X106250000Y-81661000D03*
%TO.P,U2,19,Q0*%
%TO.N,/Q0*%
X106250000Y-80391000D03*
%TO.P,U2,20,VCC*%
%TO.N,+5V*%
X106250000Y-79121000D03*
%TD*%
D11*
%TO.P,J3,1,Pin_1*%
%TO.N,GND*%
X90678000Y-81534000D03*
D12*
%TO.P,J3,2,Pin_2*%
%TO.N,/XD3*%
X90678000Y-78994000D03*
%TO.P,J3,3,Pin_3*%
%TO.N,/XD2*%
X90678000Y-76454000D03*
%TO.P,J3,4,Pin_4*%
%TO.N,/XD1*%
X90678000Y-73914000D03*
%TO.P,J3,5,Pin_5*%
%TO.N,/XD0*%
X90678000Y-71374000D03*
%TO.P,J3,6,Pin_6*%
%TO.N,/XSLC*%
X90678000Y-68834000D03*
%TD*%
D13*
%TO.P,R3,1*%
%TO.N,/Q1*%
X110388400Y-76327000D03*
%TO.P,R3,2*%
%TO.N,Net-(D3-A)*%
X112388400Y-76327000D03*
%TD*%
%TO.P,R4,1*%
%TO.N,/Q2*%
X110388400Y-79717000D03*
%TO.P,R4,2*%
%TO.N,Net-(D4-A)*%
X112388400Y-79717000D03*
%TD*%
D11*
%TO.P,J4,1,Pin_1*%
%TO.N,GND*%
X90678000Y-104648000D03*
D12*
%TO.P,J4,2,Pin_2*%
%TO.N,/XD7*%
X90678000Y-102108000D03*
%TO.P,J4,3,Pin_3*%
%TO.N,/XD6*%
X90678000Y-99568000D03*
%TO.P,J4,4,Pin_4*%
%TO.N,/XD5*%
X90678000Y-97028000D03*
%TO.P,J4,5,Pin_5*%
%TO.N,/XD4*%
X90678000Y-94488000D03*
%TO.P,J4,6,Pin_6*%
%TO.N,/XE*%
X90678000Y-91948000D03*
%TD*%
D19*
%TO.N,GND*%
X96266000Y-77470000D03*
X117823100Y-79818600D03*
X103251000Y-61595000D03*
X117823100Y-99935400D03*
X117873900Y-76415000D03*
X117873900Y-96481000D03*
X117856000Y-89916000D03*
X99695000Y-79121000D03*
X101219000Y-81026000D03*
X96139000Y-73406000D03*
X99822000Y-90551000D03*
X101219000Y-83566000D03*
X117856000Y-72948800D03*
X100330000Y-76200000D03*
X101727000Y-73406000D03*
X117823100Y-93128200D03*
X101219000Y-86106000D03*
X101219000Y-88646000D03*
X117823100Y-83069800D03*
%TD*%
D20*
%TO.N,+5V*%
X95834200Y-64592200D02*
X84861400Y-64592200D01*
X84861400Y-105232200D02*
X84861400Y-107772200D01*
X97171000Y-61595000D02*
X97171000Y-63357000D01*
X95885000Y-64643000D02*
X95834200Y-64592200D01*
X97171000Y-63357000D02*
X95885000Y-64643000D01*
D21*
%TO.N,GND*%
X119129200Y-89904200D02*
X117867800Y-89904200D01*
X119096300Y-83058000D02*
X117834900Y-83058000D01*
X119096300Y-93116400D02*
X117834900Y-93116400D01*
X119096300Y-99923600D02*
X117834900Y-99923600D01*
X98137500Y-79121000D02*
X99695000Y-79121000D01*
X119096300Y-79806800D02*
X117834900Y-79806800D01*
X101578500Y-76200000D02*
X100330000Y-76200000D01*
X117867800Y-72937000D02*
X117856000Y-72948800D01*
X103251000Y-61595000D02*
X104611500Y-61595000D01*
%TO.N,Net-(D1-A)*%
X99171000Y-61595000D02*
X101636500Y-61595000D01*
%TO.N,Net-(D2-A)*%
X112388400Y-72937000D02*
X116154200Y-72937000D01*
%TO.N,Net-(D3-A)*%
X112388400Y-76327000D02*
X116154200Y-76327000D01*
%TO.N,Net-(D4-A)*%
X112388400Y-79717000D02*
X116154200Y-79717000D01*
%TO.N,Net-(D5-A)*%
X112388400Y-83107000D02*
X116154200Y-83107000D01*
%TO.N,Net-(D6-A)*%
X112388400Y-89838000D02*
X116187100Y-89838000D01*
%TO.N,Net-(D7-A)*%
X116060467Y-93181133D02*
X116154200Y-93087400D01*
X112388400Y-93181133D02*
X116060467Y-93181133D01*
%TO.N,Net-(D8-A)*%
X116107334Y-96524266D02*
X116154200Y-96477400D01*
X112388400Y-96524266D02*
X116107334Y-96524266D01*
%TO.N,Net-(D9-A)*%
X112388400Y-99867400D02*
X116154200Y-99867400D01*
%TO.N,/XD1*%
X94488000Y-80899000D02*
X95250000Y-81661000D01*
X86360000Y-96266000D02*
X83515200Y-96266000D01*
X94488000Y-75184000D02*
X94488000Y-80899000D01*
X95250000Y-81661000D02*
X98137500Y-81661000D01*
X88138000Y-73914000D02*
X87122000Y-74930000D01*
X87122000Y-95504000D02*
X86360000Y-96266000D01*
X90932000Y-73914000D02*
X88138000Y-73914000D01*
X93218000Y-73914000D02*
X94488000Y-75184000D01*
X87122000Y-74930000D02*
X87122000Y-95504000D01*
X83515200Y-96266000D02*
X82321400Y-95072200D01*
X90678000Y-73914000D02*
X93218000Y-73914000D01*
%TO.N,/XD5*%
X93472000Y-96012000D02*
X93472000Y-88900000D01*
X83496400Y-101327200D02*
X86124800Y-101327200D01*
X93472000Y-88900000D02*
X95631000Y-86741000D01*
X92456000Y-97028000D02*
X93472000Y-96012000D01*
X82321400Y-100152200D02*
X83496400Y-101327200D01*
X90678000Y-97028000D02*
X92456000Y-97028000D01*
X95631000Y-86741000D02*
X98137500Y-86741000D01*
X86124800Y-101327200D02*
X90754200Y-96697800D01*
%TO.N,/XD7*%
X94742000Y-100584000D02*
X94742000Y-90464001D01*
X95925001Y-89281000D02*
X98137500Y-89281000D01*
X88664800Y-103867200D02*
X90754200Y-101777800D01*
X94742000Y-90464001D02*
X95925001Y-89281000D01*
X82321400Y-102692200D02*
X83496400Y-103867200D01*
X83496400Y-103867200D02*
X88664800Y-103867200D01*
X90678000Y-102108000D02*
X93218000Y-102108000D01*
X93218000Y-102108000D02*
X94742000Y-100584000D01*
%TO.N,/XD2*%
X92710000Y-76454000D02*
X93726000Y-77470000D01*
X88392000Y-76454000D02*
X90932000Y-76454000D01*
X90678000Y-76454000D02*
X92710000Y-76454000D01*
X86063481Y-97612200D02*
X87630000Y-96045681D01*
X93726000Y-81280000D02*
X95377000Y-82931000D01*
X93726000Y-77470000D02*
X93726000Y-81280000D01*
X87630000Y-96045681D02*
X87630000Y-77216000D01*
X84861400Y-97612200D02*
X86063481Y-97612200D01*
X87630000Y-77216000D02*
X88392000Y-76454000D01*
X95377000Y-82931000D02*
X96950000Y-82931000D01*
%TO.N,/XD3*%
X83496400Y-98787200D02*
X85616800Y-98787200D01*
X82321400Y-97612200D02*
X83496400Y-98787200D01*
X88080000Y-96324000D02*
X88080000Y-79814000D01*
X95377000Y-84201000D02*
X96950000Y-84201000D01*
X92964000Y-78994000D02*
X93218000Y-79248000D01*
X88900000Y-78994000D02*
X90678000Y-78994000D01*
X88080000Y-79814000D02*
X88900000Y-78994000D01*
X93218000Y-79248000D02*
X93218000Y-82042000D01*
X85616800Y-98787200D02*
X88080000Y-96324000D01*
X90678000Y-78994000D02*
X92964000Y-78994000D01*
X93218000Y-82042000D02*
X95377000Y-84201000D01*
%TO.N,/XD6*%
X93980000Y-98044000D02*
X93980000Y-89956001D01*
X87299800Y-102692200D02*
X90754200Y-99237800D01*
X90678000Y-99568000D02*
X92456000Y-99568000D01*
X92456000Y-99568000D02*
X93980000Y-98044000D01*
X84861400Y-102692200D02*
X87299800Y-102692200D01*
X93980000Y-89956001D02*
X95925001Y-88011000D01*
X95925001Y-88011000D02*
X98137500Y-88011000D01*
%TO.N,/XSLC*%
X90678000Y-68834000D02*
X90341200Y-68497200D01*
X98526600Y-95656400D02*
X98526600Y-107950000D01*
X80206000Y-108661200D02*
X80206000Y-69247600D01*
X83686400Y-68497200D02*
X82321400Y-67132200D01*
X80206000Y-108661200D02*
X80682000Y-109137200D01*
X90341200Y-68497200D02*
X83686400Y-68497200D01*
X80206000Y-69247600D02*
X82321400Y-67132200D01*
X97339400Y-109137200D02*
X98526600Y-107950000D01*
X80682000Y-109137200D02*
X97339400Y-109137200D01*
%TO.N,/XD4*%
X85521800Y-100152200D02*
X88900000Y-96774000D01*
X89662000Y-94488000D02*
X90678000Y-94488000D01*
X96950000Y-85471000D02*
X98137500Y-85471000D01*
X91694000Y-94488000D02*
X92964000Y-93218000D01*
X95377000Y-85471000D02*
X98137500Y-85471000D01*
X88900000Y-96774000D02*
X88900000Y-95250000D01*
X92964000Y-93218000D02*
X92964000Y-87884000D01*
X88900000Y-95250000D02*
X89662000Y-94488000D01*
X92964000Y-87884000D02*
X95377000Y-85471000D01*
X84861400Y-100152200D02*
X85521800Y-100152200D01*
X90678000Y-94488000D02*
X91694000Y-94488000D01*
%TO.N,/XCLK*%
X80346800Y-60877200D02*
X79756000Y-61468000D01*
X83686400Y-60877200D02*
X80346800Y-60877200D01*
X80245200Y-111487200D02*
X102660200Y-111487200D01*
X84861400Y-62052200D02*
X83686400Y-60877200D01*
X102660200Y-111487200D02*
X103606600Y-110540800D01*
X103606600Y-110540800D02*
X103606600Y-95656400D01*
X79756000Y-61468000D02*
X79756000Y-110998000D01*
X79756000Y-110998000D02*
X80245200Y-111487200D01*
%TO.N,/XD0*%
X87630000Y-71374000D02*
X90932000Y-71374000D01*
X86029800Y-95072200D02*
X86672000Y-94430000D01*
X95778000Y-80391000D02*
X98137500Y-80391000D01*
X86672000Y-94430000D02*
X86672000Y-72332000D01*
X94996000Y-79609000D02*
X95778000Y-80391000D01*
X94996000Y-73406000D02*
X94996000Y-79609000D01*
X90678000Y-71374000D02*
X92964000Y-71374000D01*
X86672000Y-72332000D02*
X87630000Y-71374000D01*
X92964000Y-71374000D02*
X94996000Y-73406000D01*
X84861400Y-95072200D02*
X86029800Y-95072200D01*
%TO.N,/LE*%
X101066600Y-94132400D02*
X102108000Y-93091000D01*
X101066600Y-95656400D02*
X101066600Y-95732600D01*
X101066600Y-95732600D02*
X101092000Y-95758000D01*
X105029000Y-93091000D02*
X105410000Y-92710000D01*
X102108000Y-93091000D02*
X105029000Y-93091000D01*
X105410000Y-90898500D02*
X105062500Y-90551000D01*
X101092000Y-95758000D02*
X101092000Y-106680000D01*
X101066600Y-95656400D02*
X101066600Y-94132400D01*
X105410000Y-92710000D02*
X105410000Y-90898500D01*
%TO.N,/Q0*%
X107274999Y-80391000D02*
X108077000Y-79588999D01*
X106250000Y-80391000D02*
X107274999Y-80391000D01*
X108077000Y-73533000D02*
X108673000Y-72937000D01*
X108077000Y-79588999D02*
X108077000Y-73533000D01*
X108673000Y-72937000D02*
X110388400Y-72937000D01*
%TO.N,/Q1*%
X106250000Y-81661000D02*
X107274999Y-81661000D01*
X108966000Y-76581000D02*
X109220000Y-76327000D01*
X107274999Y-81661000D02*
X108966000Y-79969999D01*
X108966000Y-79969999D02*
X108966000Y-76581000D01*
X109220000Y-76327000D02*
X110388400Y-76327000D01*
%TO.N,/Q2*%
X107442000Y-82931000D02*
X110388400Y-79984600D01*
X106250000Y-82931000D02*
X107442000Y-82931000D01*
X110388400Y-79984600D02*
X110388400Y-79717000D01*
%TO.N,/Q3*%
X107569000Y-84201000D02*
X108663000Y-83107000D01*
X108663000Y-83107000D02*
X110388400Y-83107000D01*
X106250000Y-84201000D02*
X107569000Y-84201000D01*
%TO.N,/Q4*%
X106250000Y-85471000D02*
X109728000Y-85471000D01*
X110388400Y-86131400D02*
X110388400Y-89838000D01*
X109728000Y-85471000D02*
X110388400Y-86131400D01*
%TO.N,/Q5*%
X106250000Y-86741000D02*
X107950000Y-86741000D01*
X109347000Y-88138000D02*
X109347000Y-92139733D01*
X109728000Y-92520733D02*
X110388400Y-93181133D01*
X109347000Y-92139733D02*
X110388400Y-93181133D01*
X107950000Y-86741000D02*
X109347000Y-88138000D01*
%TO.N,/Q6*%
X106250000Y-88011000D02*
X107442000Y-88011000D01*
X108839000Y-89408000D02*
X108839000Y-95885000D01*
X107442000Y-88011000D02*
X108839000Y-89408000D01*
X109478266Y-96524266D02*
X110388400Y-96524266D01*
X108839000Y-95885000D02*
X109478266Y-96524266D01*
%TO.N,/Q7*%
X107442000Y-89281000D02*
X106250000Y-89281000D01*
X110388400Y-99867400D02*
X109519400Y-99867400D01*
X108204000Y-90043000D02*
X107442000Y-89281000D01*
X109519400Y-99867400D02*
X108204000Y-98552000D01*
X108204000Y-98552000D02*
X108204000Y-90043000D01*
%TD*%
%TA.AperFunction,Conductor*%
%TO.N,GND*%
G36*
X118682787Y-68707660D02*
G01*
X118919825Y-68723200D01*
X118929565Y-68724483D01*
X119160135Y-68770350D01*
X119169626Y-68772893D01*
X119392237Y-68848463D01*
X119401316Y-68852224D01*
X119503900Y-68902814D01*
X119612147Y-68956198D01*
X119620665Y-68961116D01*
X119644500Y-68977042D01*
X119816125Y-69091720D01*
X119823925Y-69097705D01*
X120000662Y-69252703D01*
X120007618Y-69259659D01*
X120162609Y-69436396D01*
X120168597Y-69444199D01*
X120299204Y-69639667D01*
X120304119Y-69648181D01*
X120408088Y-69859014D01*
X120411852Y-69868102D01*
X120487412Y-70090697D01*
X120489958Y-70100198D01*
X120535819Y-70330757D01*
X120537103Y-70340510D01*
X120551132Y-70554556D01*
X120552673Y-70578055D01*
X120552834Y-70582973D01*
X120552834Y-102137538D01*
X120552673Y-102142456D01*
X120537137Y-102379493D01*
X120535853Y-102389246D01*
X120489991Y-102619809D01*
X120487445Y-102629310D01*
X120411884Y-102851910D01*
X120408120Y-102860998D01*
X120304146Y-103071838D01*
X120299228Y-103080356D01*
X120168627Y-103275817D01*
X120162639Y-103283621D01*
X120007642Y-103460364D01*
X120000686Y-103467320D01*
X119823945Y-103622321D01*
X119816141Y-103628309D01*
X119620682Y-103758912D01*
X119612164Y-103763830D01*
X119401333Y-103867805D01*
X119392245Y-103871570D01*
X119169640Y-103947137D01*
X119160139Y-103949683D01*
X118929577Y-103995548D01*
X118919825Y-103996832D01*
X118683307Y-104012339D01*
X118678387Y-104012500D01*
X117296200Y-104012500D01*
X117247862Y-103994907D01*
X117222142Y-103950358D01*
X117221000Y-103937300D01*
X117221000Y-100524074D01*
X118264301Y-100524074D01*
X118279222Y-100618296D01*
X118337094Y-100731874D01*
X118427225Y-100822005D01*
X118540801Y-100879875D01*
X118540800Y-100879875D01*
X118629199Y-100893876D01*
X118629200Y-100893876D01*
X118629200Y-100893875D01*
X119629200Y-100893875D01*
X119717594Y-100879877D01*
X119717598Y-100879876D01*
X119831174Y-100822005D01*
X119921305Y-100731874D01*
X119979175Y-100618299D01*
X119994099Y-100524071D01*
X119994100Y-100524063D01*
X119994100Y-100367400D01*
X119629200Y-100367400D01*
X119629200Y-100893875D01*
X118629200Y-100893875D01*
X118629200Y-100367400D01*
X118264301Y-100367400D01*
X118264301Y-100524074D01*
X117221000Y-100524074D01*
X117221000Y-99210728D01*
X118264300Y-99210728D01*
X118264300Y-99367400D01*
X118629200Y-99367400D01*
X119629200Y-99367400D01*
X119994099Y-99367400D01*
X119994099Y-99210737D01*
X119994098Y-99210725D01*
X119979177Y-99116503D01*
X119921305Y-99002925D01*
X119831174Y-98912794D01*
X119717596Y-98854924D01*
X119717595Y-98854923D01*
X119629200Y-98840923D01*
X119629200Y-99367400D01*
X118629200Y-99367400D01*
X118629200Y-98840924D01*
X118629199Y-98840923D01*
X118540800Y-98854924D01*
X118427225Y-98912794D01*
X118337094Y-99002925D01*
X118279224Y-99116500D01*
X118264300Y-99210728D01*
X117221000Y-99210728D01*
X117221000Y-97134074D01*
X118264301Y-97134074D01*
X118279222Y-97228296D01*
X118337094Y-97341874D01*
X118427225Y-97432005D01*
X118540801Y-97489875D01*
X118540800Y-97489875D01*
X118629199Y-97503876D01*
X118629200Y-97503876D01*
X118629200Y-97503875D01*
X119629200Y-97503875D01*
X119717594Y-97489877D01*
X119717598Y-97489876D01*
X119831174Y-97432005D01*
X119921305Y-97341874D01*
X119979175Y-97228299D01*
X119994099Y-97134071D01*
X119994100Y-97134063D01*
X119994100Y-96977400D01*
X119629200Y-96977400D01*
X119629200Y-97503875D01*
X118629200Y-97503875D01*
X118629200Y-96977400D01*
X118264301Y-96977400D01*
X118264301Y-97134074D01*
X117221000Y-97134074D01*
X117221000Y-95820728D01*
X118264300Y-95820728D01*
X118264300Y-95977400D01*
X118629200Y-95977400D01*
X119629200Y-95977400D01*
X119994099Y-95977400D01*
X119994099Y-95820737D01*
X119994098Y-95820725D01*
X119979177Y-95726503D01*
X119921305Y-95612925D01*
X119831174Y-95522794D01*
X119717596Y-95464924D01*
X119717595Y-95464923D01*
X119629200Y-95450923D01*
X119629200Y-95977400D01*
X118629200Y-95977400D01*
X118629200Y-95450924D01*
X118629199Y-95450923D01*
X118540800Y-95464924D01*
X118427225Y-95522794D01*
X118337094Y-95612925D01*
X118279224Y-95726500D01*
X118264300Y-95820728D01*
X117221000Y-95820728D01*
X117221000Y-93744074D01*
X118264301Y-93744074D01*
X118279222Y-93838296D01*
X118337094Y-93951874D01*
X118427225Y-94042005D01*
X118540801Y-94099875D01*
X118540800Y-94099875D01*
X118629199Y-94113876D01*
X118629200Y-94113876D01*
X118629200Y-94113875D01*
X119629200Y-94113875D01*
X119717594Y-94099877D01*
X119717598Y-94099876D01*
X119831174Y-94042005D01*
X119921305Y-93951874D01*
X119979175Y-93838299D01*
X119994099Y-93744071D01*
X119994100Y-93744063D01*
X119994100Y-93587400D01*
X119629200Y-93587400D01*
X119629200Y-94113875D01*
X118629200Y-94113875D01*
X118629200Y-93587400D01*
X118264301Y-93587400D01*
X118264301Y-93744074D01*
X117221000Y-93744074D01*
X117221000Y-92430728D01*
X118264300Y-92430728D01*
X118264300Y-92587400D01*
X118629200Y-92587400D01*
X119629200Y-92587400D01*
X119994099Y-92587400D01*
X119994099Y-92430737D01*
X119994098Y-92430725D01*
X119979177Y-92336503D01*
X119921305Y-92222925D01*
X119831174Y-92132794D01*
X119717596Y-92074924D01*
X119717595Y-92074923D01*
X119629200Y-92060923D01*
X119629200Y-92587400D01*
X118629200Y-92587400D01*
X118629200Y-92060924D01*
X118629199Y-92060923D01*
X118540800Y-92074924D01*
X118427225Y-92132794D01*
X118337094Y-92222925D01*
X118279224Y-92336500D01*
X118264300Y-92430728D01*
X117221000Y-92430728D01*
X117221000Y-90494674D01*
X118297201Y-90494674D01*
X118312122Y-90588896D01*
X118369994Y-90702474D01*
X118460125Y-90792605D01*
X118573701Y-90850475D01*
X118573700Y-90850475D01*
X118662099Y-90864476D01*
X118662100Y-90864476D01*
X118662100Y-90864475D01*
X119662100Y-90864475D01*
X119750494Y-90850477D01*
X119750498Y-90850476D01*
X119864074Y-90792605D01*
X119954205Y-90702474D01*
X120012075Y-90588899D01*
X120026999Y-90494671D01*
X120027000Y-90494663D01*
X120027000Y-90338000D01*
X119662100Y-90338000D01*
X119662100Y-90864475D01*
X118662100Y-90864475D01*
X118662100Y-90338000D01*
X118297201Y-90338000D01*
X118297201Y-90494674D01*
X117221000Y-90494674D01*
X117221000Y-89181328D01*
X118297200Y-89181328D01*
X118297200Y-89338000D01*
X118662100Y-89338000D01*
X119662100Y-89338000D01*
X120026999Y-89338000D01*
X120026999Y-89181337D01*
X120026998Y-89181325D01*
X120012077Y-89087103D01*
X119954205Y-88973525D01*
X119864074Y-88883394D01*
X119750496Y-88825524D01*
X119750495Y-88825523D01*
X119662100Y-88811523D01*
X119662100Y-89338000D01*
X118662100Y-89338000D01*
X118662100Y-88811524D01*
X118662099Y-88811523D01*
X118573700Y-88825524D01*
X118460125Y-88883394D01*
X118369994Y-88973525D01*
X118312124Y-89087100D01*
X118297200Y-89181328D01*
X117221000Y-89181328D01*
X117221000Y-83763674D01*
X118264301Y-83763674D01*
X118279222Y-83857896D01*
X118337094Y-83971474D01*
X118427225Y-84061605D01*
X118540801Y-84119475D01*
X118540800Y-84119475D01*
X118629199Y-84133476D01*
X118629200Y-84133476D01*
X118629200Y-84133475D01*
X119629200Y-84133475D01*
X119717594Y-84119477D01*
X119717598Y-84119476D01*
X119831174Y-84061605D01*
X119921305Y-83971474D01*
X119979175Y-83857899D01*
X119994099Y-83763671D01*
X119994100Y-83763663D01*
X119994100Y-83607000D01*
X119629200Y-83607000D01*
X119629200Y-84133475D01*
X118629200Y-84133475D01*
X118629200Y-83607000D01*
X118264301Y-83607000D01*
X118264301Y-83763674D01*
X117221000Y-83763674D01*
X117221000Y-82450328D01*
X118264300Y-82450328D01*
X118264300Y-82607000D01*
X118629200Y-82607000D01*
X119629200Y-82607000D01*
X119994099Y-82607000D01*
X119994099Y-82450337D01*
X119994098Y-82450325D01*
X119979177Y-82356103D01*
X119921305Y-82242525D01*
X119831174Y-82152394D01*
X119717596Y-82094524D01*
X119717595Y-82094523D01*
X119629200Y-82080523D01*
X119629200Y-82607000D01*
X118629200Y-82607000D01*
X118629200Y-82080524D01*
X118629199Y-82080523D01*
X118540800Y-82094524D01*
X118427225Y-82152394D01*
X118337094Y-82242525D01*
X118279224Y-82356100D01*
X118264300Y-82450328D01*
X117221000Y-82450328D01*
X117221000Y-80373674D01*
X118264301Y-80373674D01*
X118279222Y-80467896D01*
X118337094Y-80581474D01*
X118427225Y-80671605D01*
X118540801Y-80729475D01*
X118540800Y-80729475D01*
X118629199Y-80743476D01*
X118629200Y-80743476D01*
X118629200Y-80743475D01*
X119629200Y-80743475D01*
X119717594Y-80729477D01*
X119717598Y-80729476D01*
X119831174Y-80671605D01*
X119921305Y-80581474D01*
X119979175Y-80467899D01*
X119994099Y-80373671D01*
X119994100Y-80373663D01*
X119994100Y-80217000D01*
X119629200Y-80217000D01*
X119629200Y-80743475D01*
X118629200Y-80743475D01*
X118629200Y-80217000D01*
X118264301Y-80217000D01*
X118264301Y-80373674D01*
X117221000Y-80373674D01*
X117221000Y-79060328D01*
X118264300Y-79060328D01*
X118264300Y-79217000D01*
X118629200Y-79217000D01*
X119629200Y-79217000D01*
X119994099Y-79217000D01*
X119994099Y-79060337D01*
X119994098Y-79060325D01*
X119979177Y-78966103D01*
X119921305Y-78852525D01*
X119831174Y-78762394D01*
X119717596Y-78704524D01*
X119717595Y-78704523D01*
X119629200Y-78690523D01*
X119629200Y-79217000D01*
X118629200Y-79217000D01*
X118629200Y-78690524D01*
X118629199Y-78690523D01*
X118540800Y-78704524D01*
X118427225Y-78762394D01*
X118337094Y-78852525D01*
X118279224Y-78966100D01*
X118264300Y-79060328D01*
X117221000Y-79060328D01*
X117221000Y-76983674D01*
X118264301Y-76983674D01*
X118279222Y-77077896D01*
X118337094Y-77191474D01*
X118427225Y-77281605D01*
X118540801Y-77339475D01*
X118540800Y-77339475D01*
X118629199Y-77353476D01*
X118629200Y-77353476D01*
X118629200Y-77353475D01*
X119629200Y-77353475D01*
X119717594Y-77339477D01*
X119717598Y-77339476D01*
X119831174Y-77281605D01*
X119921305Y-77191474D01*
X119979175Y-77077899D01*
X119994099Y-76983671D01*
X119994100Y-76983663D01*
X119994100Y-76827000D01*
X119629200Y-76827000D01*
X119629200Y-77353475D01*
X118629200Y-77353475D01*
X118629200Y-76827000D01*
X118264301Y-76827000D01*
X118264301Y-76983674D01*
X117221000Y-76983674D01*
X117221000Y-75670328D01*
X118264300Y-75670328D01*
X118264300Y-75827000D01*
X118629200Y-75827000D01*
X119629200Y-75827000D01*
X119994099Y-75827000D01*
X119994099Y-75670337D01*
X119994098Y-75670325D01*
X119979177Y-75576103D01*
X119921305Y-75462525D01*
X119831174Y-75372394D01*
X119717596Y-75314524D01*
X119717595Y-75314523D01*
X119629200Y-75300523D01*
X119629200Y-75827000D01*
X118629200Y-75827000D01*
X118629200Y-75300524D01*
X118629199Y-75300523D01*
X118540800Y-75314524D01*
X118427225Y-75372394D01*
X118337094Y-75462525D01*
X118279224Y-75576100D01*
X118264300Y-75670328D01*
X117221000Y-75670328D01*
X117221000Y-73593674D01*
X118264301Y-73593674D01*
X118279222Y-73687896D01*
X118337094Y-73801474D01*
X118427225Y-73891605D01*
X118540801Y-73949475D01*
X118540800Y-73949475D01*
X118629199Y-73963476D01*
X118629200Y-73963476D01*
X118629200Y-73963475D01*
X119629200Y-73963475D01*
X119717594Y-73949477D01*
X119717598Y-73949476D01*
X119831174Y-73891605D01*
X119921305Y-73801474D01*
X119979175Y-73687899D01*
X119994099Y-73593671D01*
X119994100Y-73593663D01*
X119994100Y-73437000D01*
X119629200Y-73437000D01*
X119629200Y-73963475D01*
X118629200Y-73963475D01*
X118629200Y-73437000D01*
X118264301Y-73437000D01*
X118264301Y-73593674D01*
X117221000Y-73593674D01*
X117221000Y-72280328D01*
X118264300Y-72280328D01*
X118264300Y-72437000D01*
X118629200Y-72437000D01*
X119629200Y-72437000D01*
X119994099Y-72437000D01*
X119994099Y-72280337D01*
X119994098Y-72280325D01*
X119979177Y-72186103D01*
X119921305Y-72072525D01*
X119831174Y-71982394D01*
X119717596Y-71924524D01*
X119717595Y-71924523D01*
X119629200Y-71910523D01*
X119629200Y-72437000D01*
X118629200Y-72437000D01*
X118629200Y-71910524D01*
X118629199Y-71910523D01*
X118540800Y-71924524D01*
X118427225Y-71982394D01*
X118337094Y-72072525D01*
X118279224Y-72186100D01*
X118264300Y-72280328D01*
X117221000Y-72280328D01*
X117221000Y-68782700D01*
X117238593Y-68734362D01*
X117283142Y-68708642D01*
X117296200Y-68707500D01*
X118651231Y-68707500D01*
X118677869Y-68707500D01*
X118682787Y-68707660D01*
G37*
%TD.AperFunction*%
%TD*%
%TA.AperFunction,Conductor*%
%TO.N,+5V*%
G36*
X107669138Y-63263593D02*
G01*
X107694858Y-63308142D01*
X107696000Y-63321200D01*
X107696000Y-79478523D01*
X107678407Y-79526861D01*
X107673975Y-79531697D01*
X107471699Y-79733974D01*
X107425078Y-79755714D01*
X107418524Y-79756000D01*
X102945200Y-79756000D01*
X102896862Y-79738407D01*
X102871142Y-79693858D01*
X102870000Y-79680800D01*
X102870000Y-79421000D01*
X103960665Y-79421000D01*
X103971198Y-79444856D01*
X103971201Y-79444860D01*
X104051139Y-79524798D01*
X104051142Y-79524800D01*
X104154567Y-79570467D01*
X104179850Y-79573400D01*
X104762500Y-79573400D01*
X105362500Y-79573400D01*
X105950000Y-79573400D01*
X106550000Y-79573400D01*
X107170150Y-79573400D01*
X107195432Y-79570467D01*
X107298857Y-79524800D01*
X107298860Y-79524798D01*
X107378798Y-79444860D01*
X107378801Y-79444856D01*
X107389334Y-79421000D01*
X106550000Y-79421000D01*
X106550000Y-79573400D01*
X105950000Y-79573400D01*
X105950000Y-79421000D01*
X105362500Y-79421000D01*
X105362500Y-79573400D01*
X104762500Y-79573400D01*
X104762500Y-79421000D01*
X103960665Y-79421000D01*
X102870000Y-79421000D01*
X102870000Y-78820999D01*
X103960665Y-78820999D01*
X103960665Y-78821000D01*
X104762500Y-78821000D01*
X105362500Y-78821000D01*
X105950000Y-78821000D01*
X106550000Y-78821000D01*
X107389335Y-78821000D01*
X107389334Y-78820999D01*
X107378801Y-78797143D01*
X107378798Y-78797139D01*
X107298860Y-78717201D01*
X107298857Y-78717199D01*
X107195432Y-78671532D01*
X107170150Y-78668600D01*
X106550000Y-78668600D01*
X106550000Y-78821000D01*
X105950000Y-78821000D01*
X105950000Y-78668600D01*
X105362500Y-78668600D01*
X105362500Y-78821000D01*
X104762500Y-78821000D01*
X104762500Y-78668600D01*
X104179850Y-78668600D01*
X104154567Y-78671532D01*
X104051142Y-78717199D01*
X104051139Y-78717201D01*
X103971201Y-78797139D01*
X103971198Y-78797143D01*
X103960665Y-78820999D01*
X102870000Y-78820999D01*
X102870000Y-76979628D01*
X102887593Y-76931290D01*
X102932142Y-76905570D01*
X102982800Y-76914503D01*
X102998374Y-76926454D01*
X103076525Y-77004605D01*
X103153499Y-77043825D01*
X103153500Y-77043825D01*
X104153500Y-77043825D01*
X104230474Y-77004605D01*
X104320605Y-76914474D01*
X104378475Y-76800899D01*
X104393399Y-76706671D01*
X104393400Y-76706664D01*
X104393400Y-76700000D01*
X104153500Y-76700000D01*
X104153500Y-77043825D01*
X103153500Y-77043825D01*
X103153500Y-75700000D01*
X104153500Y-75700000D01*
X104393400Y-75700000D01*
X104393400Y-75693336D01*
X104393399Y-75693328D01*
X104378475Y-75599100D01*
X104320605Y-75485525D01*
X104230476Y-75395396D01*
X104230473Y-75395394D01*
X104153500Y-75356173D01*
X104153500Y-75700000D01*
X103153500Y-75700000D01*
X103153500Y-75356173D01*
X103153499Y-75356173D01*
X103076526Y-75395394D01*
X103076523Y-75395396D01*
X102998374Y-75473546D01*
X102951754Y-75495286D01*
X102902067Y-75481972D01*
X102872562Y-75439835D01*
X102870000Y-75420372D01*
X102870000Y-65786000D01*
X83641200Y-65786000D01*
X83592862Y-65768407D01*
X83567142Y-65723858D01*
X83566000Y-65710800D01*
X83566000Y-65092200D01*
X83992046Y-65092200D01*
X84023899Y-65151793D01*
X84023903Y-65151799D01*
X84149166Y-65304433D01*
X84301800Y-65429696D01*
X84301802Y-65429698D01*
X84361400Y-65461552D01*
X85361400Y-65461552D01*
X85420997Y-65429698D01*
X85420999Y-65429696D01*
X85573633Y-65304433D01*
X85698896Y-65151799D01*
X85698900Y-65151793D01*
X85730754Y-65092200D01*
X85361400Y-65092200D01*
X85361400Y-65461552D01*
X84361400Y-65461552D01*
X84361400Y-65092200D01*
X83992046Y-65092200D01*
X83566000Y-65092200D01*
X83566000Y-64526374D01*
X84361400Y-64526374D01*
X84361400Y-64658026D01*
X84395475Y-64785193D01*
X84461301Y-64899207D01*
X84554393Y-64992299D01*
X84668407Y-65058125D01*
X84795574Y-65092200D01*
X84927226Y-65092200D01*
X85054393Y-65058125D01*
X85168407Y-64992299D01*
X85261499Y-64899207D01*
X85327325Y-64785193D01*
X85361400Y-64658026D01*
X85361400Y-64526374D01*
X85327325Y-64399207D01*
X85261499Y-64285193D01*
X85168407Y-64192101D01*
X85054393Y-64126275D01*
X84927226Y-64092200D01*
X85361400Y-64092200D01*
X85730754Y-64092200D01*
X85730754Y-64092199D01*
X85698900Y-64032606D01*
X85698896Y-64032600D01*
X85573633Y-63879966D01*
X85420999Y-63754703D01*
X85420993Y-63754699D01*
X85361400Y-63722845D01*
X85361400Y-64092200D01*
X84927226Y-64092200D01*
X84795574Y-64092200D01*
X84668407Y-64126275D01*
X84554393Y-64192101D01*
X84461301Y-64285193D01*
X84395475Y-64399207D01*
X84361400Y-64526374D01*
X83566000Y-64526374D01*
X83566000Y-64092199D01*
X83992045Y-64092199D01*
X83992046Y-64092200D01*
X84361400Y-64092200D01*
X84361400Y-63722846D01*
X84361399Y-63722845D01*
X84301806Y-63754699D01*
X84301800Y-63754703D01*
X84149166Y-63879966D01*
X84023903Y-64032600D01*
X84023899Y-64032606D01*
X83992045Y-64092199D01*
X83566000Y-64092199D01*
X83566000Y-63321200D01*
X83583593Y-63272862D01*
X83628142Y-63247142D01*
X83641200Y-63246000D01*
X107620800Y-63246000D01*
X107669138Y-63263593D01*
G37*
%TD.AperFunction*%
%TD*%
%TA.AperFunction,Conductor*%
%TO.N,GND*%
G36*
X102589138Y-72661593D02*
G01*
X102614858Y-72706142D01*
X102616000Y-72719200D01*
X102616000Y-91364800D01*
X102598407Y-91413138D01*
X102553858Y-91438858D01*
X102540800Y-91440000D01*
X95577583Y-91440000D01*
X95529245Y-91422407D01*
X95503525Y-91377858D01*
X95502401Y-91366435D01*
X95498102Y-91168706D01*
X95491195Y-90851000D01*
X95810665Y-90851000D01*
X95821198Y-90874856D01*
X95821201Y-90874860D01*
X95901139Y-90954798D01*
X95901142Y-90954800D01*
X96004567Y-91000467D01*
X96029850Y-91003400D01*
X96650000Y-91003400D01*
X97250000Y-91003400D01*
X97837500Y-91003400D01*
X98437500Y-91003400D01*
X99020150Y-91003400D01*
X99045432Y-91000467D01*
X99148857Y-90954800D01*
X99148860Y-90954798D01*
X99228798Y-90874860D01*
X99228801Y-90874856D01*
X99239334Y-90851000D01*
X98437500Y-90851000D01*
X98437500Y-91003400D01*
X97837500Y-91003400D01*
X97837500Y-90851000D01*
X97250000Y-90851000D01*
X97250000Y-91003400D01*
X96650000Y-91003400D01*
X96650000Y-90851000D01*
X95810665Y-90851000D01*
X95491195Y-90851000D01*
X95478152Y-90250999D01*
X95810665Y-90250999D01*
X95810665Y-90251000D01*
X96650000Y-90251000D01*
X97250000Y-90251000D01*
X97837500Y-90251000D01*
X98437500Y-90251000D01*
X99239335Y-90251000D01*
X99239334Y-90250999D01*
X99228801Y-90227143D01*
X99228798Y-90227139D01*
X99148860Y-90147201D01*
X99148857Y-90147199D01*
X99045432Y-90101532D01*
X99020150Y-90098600D01*
X98437500Y-90098600D01*
X98437500Y-90251000D01*
X97837500Y-90251000D01*
X97837500Y-90098600D01*
X97250000Y-90098600D01*
X97250000Y-90251000D01*
X96650000Y-90251000D01*
X96650000Y-90098600D01*
X96029850Y-90098600D01*
X96004567Y-90101532D01*
X95901142Y-90147199D01*
X95901139Y-90147201D01*
X95821201Y-90227139D01*
X95821198Y-90227143D01*
X95810665Y-90250999D01*
X95478152Y-90250999D01*
X95477513Y-90221611D01*
X95494050Y-90172906D01*
X95499507Y-90166819D01*
X95727637Y-89938689D01*
X95774255Y-89916951D01*
X95780783Y-89916665D01*
X99568000Y-89916000D01*
X99568000Y-79756000D01*
X95634475Y-79756000D01*
X95586137Y-79738407D01*
X95581301Y-79733974D01*
X95526026Y-79678699D01*
X95504286Y-79632079D01*
X95504000Y-79625525D01*
X95504000Y-79421000D01*
X95810665Y-79421000D01*
X95821198Y-79444856D01*
X95821201Y-79444860D01*
X95901139Y-79524798D01*
X95901142Y-79524800D01*
X96004567Y-79570467D01*
X96029850Y-79573400D01*
X96650000Y-79573400D01*
X97250000Y-79573400D01*
X97837500Y-79573400D01*
X98437500Y-79573400D01*
X99020150Y-79573400D01*
X99045432Y-79570467D01*
X99148857Y-79524800D01*
X99148860Y-79524798D01*
X99228798Y-79444860D01*
X99228801Y-79444856D01*
X99239334Y-79421000D01*
X98437500Y-79421000D01*
X98437500Y-79573400D01*
X97837500Y-79573400D01*
X97837500Y-79421000D01*
X97250000Y-79421000D01*
X97250000Y-79573400D01*
X96650000Y-79573400D01*
X96650000Y-79421000D01*
X95810665Y-79421000D01*
X95504000Y-79421000D01*
X95504000Y-78820999D01*
X95810665Y-78820999D01*
X95810665Y-78821000D01*
X96650000Y-78821000D01*
X97250000Y-78821000D01*
X97837500Y-78821000D01*
X98437500Y-78821000D01*
X99239335Y-78821000D01*
X99239334Y-78820999D01*
X99228801Y-78797143D01*
X99228798Y-78797139D01*
X99148860Y-78717201D01*
X99148857Y-78717199D01*
X99045432Y-78671532D01*
X99020150Y-78668600D01*
X98437500Y-78668600D01*
X98437500Y-78821000D01*
X97837500Y-78821000D01*
X97837500Y-78668600D01*
X97250000Y-78668600D01*
X97250000Y-78821000D01*
X96650000Y-78821000D01*
X96650000Y-78668600D01*
X96029850Y-78668600D01*
X96004567Y-78671532D01*
X95901142Y-78717199D01*
X95901139Y-78717201D01*
X95821201Y-78797139D01*
X95821198Y-78797143D01*
X95810665Y-78820999D01*
X95504000Y-78820999D01*
X95504000Y-77305012D01*
X97347600Y-77305012D01*
X97356441Y-77349462D01*
X97356442Y-77349464D01*
X97390126Y-77399873D01*
X97440535Y-77433557D01*
X97440537Y-77433558D01*
X97484987Y-77442400D01*
X97925000Y-77442400D01*
X98925000Y-77442400D01*
X99365013Y-77442400D01*
X99409462Y-77433558D01*
X99409464Y-77433557D01*
X99459873Y-77399873D01*
X99493557Y-77349464D01*
X99493558Y-77349462D01*
X99502400Y-77305012D01*
X99502400Y-76706671D01*
X100838600Y-76706671D01*
X100853524Y-76800899D01*
X100911394Y-76914474D01*
X101001525Y-77004605D01*
X101078499Y-77043825D01*
X101078500Y-77043825D01*
X102078500Y-77043825D01*
X102155474Y-77004605D01*
X102245605Y-76914474D01*
X102303475Y-76800899D01*
X102318399Y-76706671D01*
X102318400Y-76706664D01*
X102318400Y-76700000D01*
X102078500Y-76700000D01*
X102078500Y-77043825D01*
X101078500Y-77043825D01*
X101078500Y-76700000D01*
X100838600Y-76700000D01*
X100838600Y-76706671D01*
X99502400Y-76706671D01*
X99502400Y-76065000D01*
X98925000Y-76065000D01*
X98925000Y-77442400D01*
X97925000Y-77442400D01*
X97925000Y-76065000D01*
X97347600Y-76065000D01*
X97347600Y-77305012D01*
X95504000Y-77305012D01*
X95504000Y-75693328D01*
X100838600Y-75693328D01*
X100838600Y-75700000D01*
X101078500Y-75700000D01*
X102078500Y-75700000D01*
X102318400Y-75700000D01*
X102318400Y-75693336D01*
X102318399Y-75693328D01*
X102303475Y-75599100D01*
X102245605Y-75485525D01*
X102155476Y-75395396D01*
X102155473Y-75395394D01*
X102078500Y-75356173D01*
X102078500Y-75700000D01*
X101078500Y-75700000D01*
X101078500Y-75356173D01*
X101078499Y-75356173D01*
X101001526Y-75395394D01*
X101001523Y-75395396D01*
X100911394Y-75485525D01*
X100853524Y-75599100D01*
X100838600Y-75693328D01*
X95504000Y-75693328D01*
X95504000Y-73824987D01*
X97347600Y-73824987D01*
X97347600Y-75065000D01*
X97925000Y-75065000D01*
X98925000Y-75065000D01*
X99502400Y-75065000D01*
X99502400Y-73824987D01*
X99493558Y-73780537D01*
X99493557Y-73780535D01*
X99459873Y-73730126D01*
X99409464Y-73696442D01*
X99409462Y-73696441D01*
X99365013Y-73687600D01*
X98925000Y-73687600D01*
X98925000Y-75065000D01*
X97925000Y-75065000D01*
X97925000Y-73687600D01*
X97484987Y-73687600D01*
X97440537Y-73696441D01*
X97440535Y-73696442D01*
X97390126Y-73730126D01*
X97356442Y-73780535D01*
X97356441Y-73780537D01*
X97347600Y-73824987D01*
X95504000Y-73824987D01*
X95504000Y-72719200D01*
X95521593Y-72670862D01*
X95566142Y-72645142D01*
X95579200Y-72644000D01*
X102540800Y-72644000D01*
X102589138Y-72661593D01*
G37*
%TD.AperFunction*%
%TD*%
M02*
