M48
; DRILL file {KiCad 8.0.2} date 2024-05-07T14:35:51-0500
; FORMAT={-:-/ absolute / inch / decimal}
; #@! TF.CreationDate,2024-05-07T14:35:51-05:00
; #@! TF.GenerationSoftware,Kicad,Pcbnew,8.0.2
; #@! TF.FileFunction,Plated,1,2,PTH
FMAT,2
INCH
; #@! TA.AperFunction,Plated,PTH,ViaDrill
T1C0.0157
; #@! TA.AperFunction,Plated,PTH,ComponentDrill
T2C0.0394
%
G90
G05
T1
X3.785Y-2.89
X3.79Y-3.05
X3.925Y-3.115
X3.93Y-3.565
X3.95Y-3.0
X3.985Y-3.19
X3.985Y-3.29
X3.985Y-3.39
X3.985Y-3.49
X4.005Y-2.89
X4.065Y-2.425
X4.6387Y-3.1425
X4.6387Y-3.2705
X4.6387Y-3.6665
X4.6387Y-3.9345
X4.64Y-2.872
X4.64Y-3.54
X4.6407Y-3.0085
X4.6407Y-3.7985
T2
X3.241Y-2.443
X3.241Y-2.543
X3.241Y-2.643
X3.241Y-2.743
X3.241Y-2.843
X3.241Y-2.943
X3.241Y-3.043
X3.241Y-3.143
X3.241Y-3.243
X3.241Y-3.343
X3.241Y-3.443
X3.241Y-3.543
X3.241Y-3.643
X3.241Y-3.743
X3.241Y-3.843
X3.241Y-3.943
X3.241Y-4.043
X3.241Y-4.143
X3.241Y-4.243
X3.241Y-4.343
X3.341Y-2.443
X3.341Y-2.543
X3.341Y-2.643
X3.341Y-2.743
X3.341Y-2.843
X3.341Y-2.943
X3.341Y-3.043
X3.341Y-3.143
X3.341Y-3.243
X3.341Y-3.343
X3.341Y-3.443
X3.341Y-3.543
X3.341Y-3.643
X3.341Y-3.743
X3.341Y-3.843
X3.341Y-3.943
X3.341Y-4.043
X3.341Y-4.143
X3.341Y-4.243
X3.341Y-4.343
X3.57Y-2.71
X3.57Y-2.81
X3.57Y-2.91
X3.57Y-3.01
X3.57Y-3.11
X3.57Y-3.21
X3.57Y-3.62
X3.57Y-3.72
X3.57Y-3.82
X3.57Y-3.92
X3.57Y-4.02
X3.57Y-4.12
X3.879Y-3.766
X3.979Y-3.766
X4.079Y-3.766
M30
